<svg width="40" height="40" viewBox="0 0 40 40" fill="none" xmlns="http://www.w3.org/2000/svg">
<path d="M0 20C0 8.95431 8.95431 0 20 0C31.0457 0 40 8.95431 40 20C40 31.0457 31.0457 40 20 40C8.95431 40 0 31.0457 0 20Z" fill="#005BFF"/>
<path d="M9.49717 18.5586C11.4423 18.5586 12.8682 17.2199 12.8682 15.2798C12.8682 13.3396 11.4432 12.001 9.49717 12.001C7.552 12.001 6.12613 13.3396 6.12613 15.2798C6.12613 17.2199 7.55114 18.5586 9.49717 18.5586ZM22.6352 18.5586C24.5804 18.5586 26.0062 17.2199 26.0062 15.2798C26.0062 13.3396 24.5804 12.001 22.6352 12.001C20.69 12.001 19.2642 13.3396 19.2642 15.2798C19.2642 17.2199 20.69 18.5586 22.6352 18.5586ZM32.8649 18.3455V14.5617C32.8649 12.738 31.882 12.001 30.5538 12C29.6678 12 28.9737 12.4272 28.5692 13.1255H28.5307V12.1941H26.912V18.3455H28.5495V15.3184C28.5495 13.9791 29.1468 13.5138 29.9754 13.5138C30.7646 13.5138 31.2273 13.9222 31.2273 14.9112V18.3455H32.8649ZM13.4655 13.5916V12.1941H18.7054V13.4941L15.4115 16.948H18.8597V18.3455H13.3884V17.0258L16.6823 13.5916H13.4655ZM9.49717 17.0455C8.49546 17.0455 7.84078 16.3464 7.84078 15.2798C7.84078 14.2121 8.49546 13.5138 9.49717 13.5138C10.4989 13.5138 11.1536 14.2121 11.1536 15.2798C11.1536 16.3474 10.4989 17.0455 9.49717 17.0455ZM22.6352 17.0455C21.6335 17.0455 20.9788 16.3464 20.9788 15.2798C20.9788 14.2121 21.6335 13.5138 22.6352 13.5138C23.6369 13.5138 24.2916 14.2121 24.2916 15.2798C24.2916 16.3474 23.6369 17.0455 22.6352 17.0455ZM27.0541 28.3102V22.1849H25.4156V24.4064H22.794V22.1849H21.1555V28.3102H22.794V25.8367H25.4156V28.3102H27.0541ZM18.3823 23.0735V22.1849H20.0207V28.3102H18.3823V27.479H18.3439C18.0163 28.0584 17.3031 28.5225 16.3009 28.5225C14.6625 28.5225 13.3901 27.3443 13.3901 25.2376C13.3901 23.1508 14.7011 21.9916 16.3009 21.9916C17.2834 21.9916 18.055 22.4557 18.3439 23.0735H18.3823ZM7.65808 23.3252C8.06276 22.5914 8.8335 22.1273 9.8357 22.1273C11.4544 22.1273 12.7841 23.3252 12.7841 25.2376C12.7841 27.1509 11.3197 28.5225 9.41132 28.5225C7.48405 28.5225 6 27.1509 6 24.5811C6 21.6829 6.79044 19.8661 9.44993 19.6538L12.1677 19.4414V21.0064L9.71998 21.2385C8.13993 21.3932 7.67693 21.9726 7.6195 23.3252H7.65808ZM15.1065 25.2763C15.1065 26.3008 15.7416 27.0349 16.7252 27.0349C17.7077 27.0349 18.3823 26.2811 18.3823 25.2565C18.3823 24.213 17.7077 23.4792 16.7252 23.4792C15.7428 23.4792 15.1065 24.233 15.1065 25.2763ZM7.71465 25.2575C7.71465 26.3197 8.4477 27.0349 9.39161 27.0349C10.3364 27.0349 11.0686 26.3197 11.0686 25.2575C11.0686 24.1754 10.3364 23.5376 9.39161 23.5376C8.44683 23.5376 7.71465 24.1754 7.71465 25.2575ZM29.7024 25.3736L31.9183 28.3102L34 28.3094L31.2634 24.9668L33.7695 22.1849H31.7454L29.7024 24.7161V22.1849H28.0639V28.3102H29.7024V25.3736Z" fill="white"/>
</svg>
