<svg width="40" height="40" viewBox="0 0 40 40" fill="none" xmlns="http://www.w3.org/2000/svg">
<g clip-path="url(#clip0_19_8)">
<path d="M0 20C0 8.95431 8.95431 0 20 0C31.0457 0 40 8.95431 40 20C40 31.0457 31.0457 40 20 40C8.95431 40 0 31.0457 0 20Z" fill="#FFDD2D"/>
<path d="M10.9998 12V18.2511C11.8627 17.2924 13.4159 16.6404 15.18 16.6404H17.1168V23.9079C17.1168 25.8445 16.599 27.532 15.8129 28.4716H24.4138C23.6276 27.532 23.1529 25.8445 23.1529 23.9079V16.6404H25.0366C26.82 16.6404 28.3857 17.2924 29.2295 18.2511V12H10.9998Z" fill="#333333"/>
</g>
<defs>
<clipPath id="clip0_19_8">
<rect width="40" height="40" fill="white"/>
</clipPath>
</defs>
</svg>
