<svg width="40" height="40" viewBox="0 0 40 40" fill="none" xmlns="http://www.w3.org/2000/svg">
<g clip-path="url(#clip0_25_2)">
<path d="M-0.000976562 20C-0.000976562 8.95431 8.95333 0 19.999 0V0C31.0447 0 39.999 8.95431 39.999 20V20C39.999 31.0457 31.0447 40 19.999 40V40C8.95333 40 -0.000976562 31.0457 -0.000976562 20V20Z" fill="#009FDF"/>
<path d="M12.8198 12L11.3631 15.9957H31.5423L32.999 12H12.8198ZM10.6356 17.9919L9.17896 21.9867H29.3582L30.8149 17.9919H10.6356ZM8.4557 23.9837L6.99902 27.9777H27.1782L28.6332 23.9829C28.6341 23.9837 8.4557 23.9837 8.4557 23.9837Z" fill="white"/>
</g>
<defs>
<clipPath id="clip0_25_2">
<rect width="40" height="40" fill="white"/>
</clipPath>
</defs>
</svg>
