<svg width="40" height="40" viewBox="0 0 40 40" fill="none" xmlns="http://www.w3.org/2000/svg">
<g clip-path="url(#clip0_19_5)">
<path d="M20 40C31.0457 40 40 31.0457 40 20C40 8.95431 31.0457 0 20 0C8.95431 0 0 8.95431 0 20C0 31.0457 8.95431 40 20 40Z" fill="black"/>
<path d="M27.2372 32.5555H22.8468V10.8409H20.8909C17.3059 10.8409 15.428 12.6335 15.428 15.3093C15.428 18.3451 16.7232 19.7517 19.4027 21.5442L21.6109 23.0324L15.2647 32.5518H10.5439L16.2556 24.053C12.9711 21.7075 11.1229 19.4177 11.1229 15.5542C11.1229 10.7259 14.489 7.44141 20.8613 7.44141H27.2075V32.5481H27.2372V32.5555Z" fill="white"/>
</g>
<defs>
<clipPath id="clip0_19_5">
<rect width="40" height="40" fill="white"/>
</clipPath>
</defs>
</svg>
